# File created by Blade
# Date/Time:  Wed Jan 21 19:03:17 2015
#---------------------------------------------------------
:version 1.10
:name HOM
:units
  mass 1.0
  length 1.000000
  angle deg
:documentation
     Acclaim Skeleton File
:root
   axis xyz
   order TX TY TZ RX RY RZ
   position 0.000000 0.000000 0.000000
   orientation 0 0 0
:bonedata
   begin
      id 1
      name RightUpLeg_dum
      direction -1.000000 0.000000 0.000000
      length 3.693983
      axis 0.0 0.0 0.0 xyz
   end
   begin
      id 2
      name LeftUpLeg_dum
      direction 1.000000 0.000000 0.000000
      length 3.693983
      axis 0.0 0.0 0.0 xyz
   end
   begin
      id 3
      name Spine_dum
      direction 0.000000 1.000000 0.000000
      length 2.392956
      axis 0.0 0.0 0.0 xyz
   end
   begin
      id 4
      name RightUpLeg
      direction 0.000000 -1.000000 0.000000
      length 15.795667
      axis 0.0 0.0 0.0 xyz
      dof rx ry rz
   end
   begin
      id 5
      name RightLeg
      direction 0.000000 -1.000000 0.000000
      length 14.766989
      axis 0.0 0.0 0.0 xyz
      dof rx ry rz
   end
   begin
      id 6
      name RightFoot
      direction 0.000000 -0.258819 0.965926
      length 4.962790
      axis 15.0 0.0 0.0 xyz
      dof rx ry rz
   end
   begin
      id 7
      name RightToeBase
      direction 0.000000 0.000000 1.000000
      length 2.952750
      axis 0.0 0.0 0.0 xyz
      dof rx ry rz
   end
   begin
      id 8
      name LeftUpLeg
      direction 0.000000 -1.000000 0.000000
      length 15.795667
      axis 0.0 0.0 0.0 xyz
      dof rx ry rz
   end
   begin
      id 9
      name LeftLeg
      direction 0.000000 -1.000000 0.000000
      length 14.766989
      axis 0.0 0.0 0.0 xyz
      dof rx ry rz
   end
   begin
      id 10
      name LeftFoot
      direction 0.000000 -0.258819 0.965926
      length 4.962790
      axis 15.0 0.0 0.0 xyz
      dof rx ry rz
   end
   begin
      id 11
      name LeftToeBase
      direction 0.000000 0.000000 1.000000
      length 2.952750
      axis 0.0 0.0 0.0 xyz
      dof rx ry rz
   end
   begin
      id 12
      name Spine
      direction 0.000000 1.000000 0.000000
      length 0.000000
      axis 0.0 0.0 0.0 xyz
      dof rx ry rz
   end
   begin
      id 13
      name Spine_dum1
      direction 0.000000 1.000000 0.000000
      length 13.207411
      axis 0.0 0.0 0.0 xyz
   end
   begin
      id 14
      name Spine_dum2
      direction 0.000000 1.000000 0.000000
      length 13.207411
      axis 0.0 0.0 0.0 xyz
   end
   begin
      id 15
      name Spine_dum3
      direction 0.000000 1.000000 0.000000
      length 19.250100
      axis 0.0 0.0 0.0 xyz
   end
   begin
      id 16
      name RightShoulder
      direction -1.000000 0.000000 0.000000
      length 8.140465
      axis 0.0 0.0 90.0 xyz
      dof rx ry rz
   end
   begin
      id 17
      name RightArm
      direction -1.000000 0.000000 0.000000
      length 10.649840
      axis 0.0 0.0 90.0 xyz
      dof rx ry rz
   end
   begin
      id 18
      name RightForeArm
      direction -1.000000 0.000000 0.000000
      length 8.304624
      axis 0.0 0.0 90.0 xyz
      dof ry rz rx
   end
   begin
      id 19
      name RightHand
      direction -1.000000 0.000000 0.000000
      length 0.000000
      axis 0.0 0.0 90.0 xyz
      dof rx ry rz
   end
   begin
      id 20
      name RightHand_dum1
      direction -1.000000 0.000000 0.000000
      length 3.937000
      axis 0.0 0.0 90.0 xyz
   end
   begin
      id 21
      name RightHand_dum2
      direction 0.000000 0.000000 0.000000
      length 0.000000
      axis 0.0 0.0 90.0 xyz
   end
   begin
      id 22
      name RightHandThumb1
      direction 0.000000 0.000000 1.000000
      length 3.937000
      axis 0.0 0.0 90.0 xyz
      dof rx rz ry
   end
   begin
      id 23
      name LeftShoulder
      direction 1.000000 0.000000 0.000000
      length 8.140465
      axis 0.0 0.0 -90.0 xyz
      dof rx ry rz
   end
   begin
      id 24
      name LeftArm
      direction 1.000000 0.000000 0.000000
      length 10.649840
      axis 0.0 0.0 -90.0 xyz
      dof rx ry rz
   end
   begin
      id 25
      name LeftForeArm
      direction 1.000000 0.000000 0.000000
      length 8.304624
      axis 0.0 0.0 -90.0 xyz
      dof ry rz rx
   end
   begin
      id 26
      name LeftHand
      direction 1.000000 0.000000 0.000000
      length 0.000000
      axis 0.0 0.0 -90.0 xyz
      dof rx ry rz
   end
   begin
      id 27
      name LeftHand_dum1
      direction 1.000000 0.000000 0.000000
      length 3.937000
      axis 0.0 0.0 -90.0 xyz
   end
   begin
      id 28
      name LeftHand_dum2
      direction 0.000000 0.000000 0.000000
      length 0.000000
      axis 0.0 0.0 -90.0 xyz
   end
   begin
      id 29
      name LeftHandThumb1
      direction 0.000000 0.000000 1.000000
      length 3.937000
      axis 0.0 0.0 -90.0 xyz
      dof rx rz ry
   end
   begin
      id 30
      name Head
      direction 0.000000 1.000000 0.000000
      length 4.527550
      axis 0.0 0.0 0.0 xyz
      dof rx ry rz
   end
:hierarchy
   begin
      root RightUpLeg_dum LeftUpLeg_dum Spine_dum
      RightUpLeg_dum RightUpLeg
      LeftUpLeg_dum LeftUpLeg
      Spine_dum Spine
      RightUpLeg RightLeg
      RightLeg RightFoot
      RightFoot RightToeBase
      LeftUpLeg LeftLeg
      LeftLeg LeftFoot
      LeftFoot LeftToeBase
      Spine Spine_dum1 Spine_dum2 Spine_dum3
      Spine_dum1 RightShoulder
      Spine_dum2 LeftShoulder
      Spine_dum3 Head
      RightShoulder RightArm
      RightArm RightForeArm
      RightForeArm RightHand
      RightHand RightHand_dum1 RightHand_dum2
      RightHand_dum2 RightHandThumb1
      LeftShoulder LeftArm
      LeftArm LeftForeArm
      LeftForeArm LeftHand
      LeftHand LeftHand_dum1 LeftHand_dum2
      LeftHand_dum2 LeftHandThumb1
   end

# File created by Blade
# Date/Time:  Wed Jan 21 19:03:07 2015
# Frame Rate: 120.000 fps
#------------------------------------------------------
:FULLY-SPECIFIED
:DEGREES
1184
root -4.275388 30.010600 -10.493636 119.190050 -19.277273 6.405141
RightUpLeg -128.378444 -32.018772 4.552280
RightLeg -6.408592 -0.000000 0.000000
RightFoot -3.902918 -24.307864 34.232341
RightToeBase 20.146608 -0.000000 -0.000000
LeftUpLeg -117.023285 9.247907 -20.839791
LeftLeg -1.347371 -0.000000 0.000000
LeftFoot 0.033009 4.420003 -23.673929
LeftToeBase 6.032469 -0.000000 -0.000000
Spine 20.661270 -0.563927 6.467486
RightShoulder -10.431503 23.378192 -42.301283
RightArm -7.796188 26.822628 62.757660
RightForeArm 8.482584 -0.000000 105.720860
RightHand 16.480929 -0.000000 -34.063182
RightHandThumb1 -24.326973 -0.000000 -32.862282
LeftShoulder -3.945539 45.314291 8.331716
LeftArm 117.546978 -1.755762 -77.046737
LeftForeArm -13.127673 -0.000000 71.713997
LeftHand -21.246451 -0.000000 17.212656
LeftHandThumb1 -26.253704 0.000000 33.147579
Head -49.380646 40.577012 -32.368677
1185
root -4.272276 30.012825 -10.516979 119.245529 -19.091442 6.446178
RightUpLeg -128.418781 -32.063614 4.643615
RightLeg -6.377542 -0.000000 0.000000
RightFoot -4.026509 -24.381353 34.418333
RightToeBase 20.209530 -0.000000 -0.000000
LeftUpLeg -117.116072 9.299178 -20.582148
LeftLeg -1.433863 -0.000000 0.000000
LeftFoot 0.091475 4.612881 -23.630962
LeftToeBase 6.048283 -0.000000 -0.000000
Spine 20.531065 -0.886082 6.437516
RightShoulder -10.372641 23.505288 -42.532131
RightArm -7.447414 26.840410 63.448202
RightForeArm 7.070447 -0.000000 106.880785
RightHand 16.611692 -0.000000 -33.769123
RightHandThumb1 -24.326973 -0.000000 -32.862282
LeftShoulder -3.921464 46.008702 7.851954
LeftArm 118.210231 -2.167676 -77.143512
LeftForeArm -12.979777 -0.000000 71.015211
LeftHand -21.730128 0.000000 18.025042
LeftHandThumb1 -26.253704 0.000000 33.147579
Head -48.604589 39.822855 -32.165237
1186
root -4.273383 30.012618 -10.536920 119.291750 -18.879592 6.403757
RightUpLeg -128.386478 -31.975342 4.806674
RightLeg -6.485490 -0.000000 0.000000
RightFoot -3.957036 -24.280011 34.607041
RightToeBase 20.211849 -0.000000 -0.000000
LeftUpLeg -117.365619 9.271577 -20.715177
LeftLeg -1.315051 -0.000000 0.000000
LeftFoot 0.210476 4.326797 -23.588759
LeftToeBase 5.984097 -0.000000 -0.000000
Spine 20.507764 -1.165355 6.347240
RightShoulder -10.345328 23.498028 -42.647813
RightArm -6.832551 26.787742 64.189888
RightForeArm 5.697522 0.000000 108.073421
RightHand 16.625364 -0.000000 -33.376710
RightHandThumb1 -24.326973 -0.000000 -32.862282
LeftShoulder -4.013590 46.589698 7.329980
LeftArm 118.840078 -2.328335 -77.342238
LeftForeArm -12.353606 -0.000000 70.337146
LeftHand -22.359670 -0.000000 18.723024
LeftHandThumb1 -26.253704 0.000000 33.147579
Head -48.097379 39.033921 -32.060670
1187
root -4.266959 30.014338 -10.558578 119.335014 -18.707912 6.431698
RightUpLeg -128.437624 -31.979821 4.954586
RightLeg -6.471548 -0.000000 0.000000
RightFoot -3.946881 -24.232122 34.726663
RightToeBase 20.180271 -0.000000 -0.000000
LeftUpLeg -117.547100 9.200236 -20.725665
LeftLeg -1.273258 -0.000000 0.000000
LeftFoot 0.299978 4.206330 -23.496857
LeftToeBase 6.015180 -0.000000 -0.000000
Spine 20.405866 -1.430802 6.305355
RightShoulder -10.256021 23.828033 -42.948319
RightArm -6.794484 26.643070 64.763123
RightForeArm 4.573153 -0.000000 109.216844
RightHand 16.922490 0.000000 -33.526808
RightHandThumb1 -24.326973 -0.000000 -32.862282
LeftShoulder -3.840777 47.112100 7.070059
LeftArm 119.313229 -2.550444 -77.577697
LeftForeArm -12.308544 -0.000000 69.673896
LeftHand -22.523847 0.000000 19.680805
LeftHandThumb1 -26.253704 0.000000 33.147579
Head -47.332949 38.279278 -31.877218
1188
root -4.258189 30.014466 -10.577238 119.372545 -18.555643 6.479559
RightUpLeg -128.492288 -32.023813 5.079837
RightLeg -6.433055 -0.000000 0.000000
RightFoot -4.025523 -24.186561 34.923845
RightToeBase 20.213148 -0.000000 -0.000000
LeftUpLeg -117.665356 9.161189 -20.627090
LeftLeg -1.288780 -0.000000 0.000000
LeftFoot 0.361352 4.218498 -23.426506
LeftToeBase 6.039064 -0.000000 -0.000000
Spine 20.308742 -2.004697 6.251359
RightShoulder -10.128062 23.442558 -43.137445
RightArm -5.535098 26.543656 65.987866
RightForeArm 3.280307 -0.000000 110.343522
RightHand 17.120304 -0.000000 -32.566706
RightHandThumb1 -24.326973 -0.000000 -32.862282
LeftShoulder -3.838914 47.214729 6.721996
LeftArm 119.155014 -2.794998 -77.966960
LeftForeArm -12.308350 -0.000000 69.336401
LeftHand -22.996774 -0.000000 20.463794
LeftHandThumb1 -26.253704 0.000000 33.147579
Head -46.671432 37.555358 -31.963604
1189
root -4.250100 30.017689 -10.595613 119.405866 -18.410688 6.506152
RightUpLeg -128.550568 -32.006991 5.234144
RightLeg -6.417207 -0.000000 0.000000
RightFoot -4.007263 -24.122296 35.006967
RightToeBase 20.246476 -0.000000 -0.000000
LeftUpLeg -117.774416 9.137962 -20.546473
LeftLeg -1.307725 -0.000000 0.000000
LeftFoot 0.433992 4.227145 -23.409227
LeftToeBase 6.036311 -0.000000 -0.000000
Spine 20.220121 -2.483685 6.163040
RightShoulder -9.949387 23.646472 -43.448055
RightArm -5.013028 26.219289 66.922839
RightForeArm 2.032997 -0.000000 111.428637
RightHand 17.114928 -0.000000 -32.992391
RightHandThumb1 -24.326973 -0.000000 -32.862282
LeftShoulder -3.727659 47.458955 6.497638
LeftArm 119.190745 -2.994203 -78.376154
LeftForeArm -12.233352 -0.000000 68.917954
LeftHand -23.322443 -0.000000 21.579764
LeftHandThumb1 -26.253704 0.000000 33.147579
Head -45.932090 36.758327 -31.823701
1190
root -4.239923 30.019420 -10.614344 119.448725 -18.265642 6.558708
RightUpLeg -128.629014 -32.046741 5.376310
RightLeg -6.380777 -0.000000 0.000000
RightFoot -4.026340 -24.117159 35.054204
RightToeBase 20.346792 -0.000000 -0.000000
LeftUpLeg -117.906046 9.066433 -20.491994
LeftLeg -1.314793 -0.000000 0.000000
LeftFoot 0.512648 4.195102 -23.367176
LeftToeBase 6.069424 -0.000000 -0.000000
Spine 20.116240 -2.931842 6.075687
RightShoulder -9.764499 23.804751 -43.667859
RightArm -4.545293 25.795305 67.662618
RightForeArm 1.179186 -0.000000 112.470638
RightHand 17.307255 -0.000000 -33.057742
RightHandThumb1 -24.326973 -0.000000 -32.862282
LeftShoulder -3.565867 47.649912 6.356456
LeftArm 119.196326 -3.068952 -78.811479
LeftForeArm -12.229245 -0.000000 68.528822
LeftHand -23.646292 -0.000000 22.775567
LeftHandThumb1 -26.253704 0.000000 33.147579
Head -45.239335 36.095745 -31.568561
